# xmcd
#
# Track frame offsets: 
#        150
#        18045
#        38895
#        58306
#        72945
#        91751
#        114006
#        138304
#        160850
#        184912
#        208377
#        226533
#        229011
#        246056
#
# Disc length: 3406 seconds
#
# Revision: 7
# Processed by: cddbd v1.5.2PL0 Copyright (c) Steve Scherf et al.
# Submitted via: ExactAudioCopyFreeDBPlugin 1.0
#
DISCID=af0d4c0e
DTITLE=大滝、詠一 - EACH TIME
DYEAR=2004
DGENRE=Jpop
TTITLE0=夏のペーパーバック
TTITLE1=Bachelor Girl
TTITLE2=木の葉のスケッチ
TTITLE3=恋のナックルボール
TTITLE4=銀色のジェット
TTITLE5=1969年のドラッグレース
TTITLE6=ガラス壜の中の船
TTITLE7=ペパーミント・ブルー
TTITLE8=魔法の瞳
TTITLE9=レイクサイド ストーリー
TTITLE10=フィヨルドの少女
TTITLE11=Cider '83
TTITLE12=恋のナックルボール (1st Recording Version)
TTITLE13=マルチスコープ
EXTD=YEAR: 2004
EXTT0=
EXTT1=
EXTT2=
EXTT3=
EXTT4=
EXTT5=
EXTT6=
EXTT7=
EXTT8=
EXTT9=
EXTT10=
EXTT11=
EXTT12=
EXTT13=
PLAYORDER=
